<?xml version="1.0" standalone="no"?>
<!DOCTYPE svg PUBLIC "-//W3C//DTD SVG 20010904//EN"
 "http://www.w3.org/TR/2001/REC-SVG-20010904/DTD/svg10.dtd">
<svg version="1.0" xmlns="http://www.w3.org/2000/svg"
 width="715.000000pt" height="715.000000pt" viewBox="0 0 715.000000 715.000000"
 preserveAspectRatio="xMidYMid meet">

<g transform="translate(0.000000,715.000000) scale(0.100000,-0.100000)"
fill="#000000" stroke="none">
<path d="M3393 7047 c-561 -355 -792 -503 -793 -509 0 -10 165 -118 180 -118
7 0 110 62 229 137 432 273 497 313 526 329 l31 16 149 -95 c83 -52 201 -126
262 -165 l112 -71 80 59 c43 32 81 62 84 67 3 5 -31 34 -76 63 -151 98 -600
382 -611 386 -6 2 -84 -42 -173 -99z"/>
<path d="M4692 6750 c-97 -72 -244 -197 -400 -339 -152 -138 -344 -364 -472
-556 -90 -134 -135 -215 -124 -224 13 -12 274 -115 277 -110 2 2 24 42 49 89
114 218 263 426 442 615 96 103 273 263 280 254 18 -22 87 -372 111 -569 22
-177 31 -643 15 -805 -6 -72 -13 -139 -14 -150 -1 -14 25 -44 78 -93 44 -39
82 -72 86 -72 8 0 25 74 41 175 20 130 23 592 5 762 -27 257 -71 475 -141 709
-42 139 -121 362 -134 376 -3 4 -48 -24 -99 -62z"/>
<path d="M1891 6617 c-142 -248 -272 -620 -327 -937 -32 -179 -43 -496 -25
-660 17 -150 56 -335 97 -461 l35 -109 57 43 c151 116 400 263 544 323 57 23
56 14 27 202 -62 416 -154 787 -299 1201 -33 96 -58 176 -56 179 3 2 38 -13
78 -35 399 -215 798 -556 1076 -921 110 -144 302 -433 302 -455 0 -4 -44 -7
-98 -7 -523 0 -1172 -311 -1646 -788 l-99 -100 70 -144 c248 -505 650 -895
1248 -1209 127 -67 346 -161 488 -209 l98 -33 17 24 c29 42 167 191 263 285
l94 92 0 263 c0 240 2 272 23 352 50 199 132 347 261 470 221 211 520 280 896
207 60 -12 153 -36 207 -55 54 -18 98 -31 98 -28 0 12 -137 174 -243 288 -481
516 -953 832 -1514 1013 l-115 37 -96 115 c-349 418 -783 762 -1334 1059 l-96
52 -31 -54z m889 -2388 c363 -45 620 -224 766 -533 58 -124 94 -310 94 -486
l0 -75 -23 56 c-33 78 -110 220 -170 309 -75 113 -149 193 -245 265 -252 191
-568 267 -1178 282 l-251 6 96 34 c181 64 462 128 641 146 76 8 190 6 270 -4z
m-115 -499 c304 -23 435 -72 563 -210 35 -38 116 -159 144 -215 28 -55 98
-238 98 -255 0 -6 -13 -2 -29 9 -54 39 -178 80 -315 106 -175 32 -180 33 -243
61 -104 45 -171 118 -223 242 -16 36 -40 81 -54 98 -26 33 -139 95 -243 135
-35 13 -63 27 -63 30 0 11 220 10 365 -1z"/>
<path d="M2985 3525 c-14 -13 -25 -33 -25 -45 0 -11 11 -32 25 -45 13 -14 34
-25 45 -25 12 0 32 11 45 25 14 13 25 34 25 45 0 27 -43 70 -70 70 -11 0 -32
-11 -45 -25z"/>
<path d="M3497 6582 c-35 -38 -9 -102 40 -102 47 0 71 71 35 103 -24 22 -55
21 -75 -1z"/>
<path d="M3166 6429 c-61 -48 -8 -143 66 -117 51 18 57 102 9 127 -29 16 -45
14 -75 -10z"/>
<path d="M3480 6285 c-15 -18 -5 -65 14 -65 29 0 46 13 46 34 0 41 -36 60 -60
31z"/>
<path d="M5280 5893 c5 -21 14 -79 20 -129 7 -51 15 -96 19 -102 7 -11 251
-171 521 -342 200 -126 400 -254 493 -314 l57 -37 0 -1372 c0 -1142 -2 -1393
-15 -1497 -12 -105 -37 -222 -71 -337 -5 -19 23 -4 145 73 l151 96 0 1573 c0
1485 -1 1573 -17 1587 -10 8 -297 192 -637 409 -341 217 -632 402 -647 412
l-27 18 8 -38z"/>
<path d="M1094 5452 c-83 -53 -242 -155 -352 -227 l-201 -130 -1 -1576 0
-1576 132 -89 c72 -49 137 -92 143 -96 7 -4 0 32 -16 88 -29 95 -53 247 -63
383 -3 40 -3 71 0 68 3 -3 25 -49 49 -101 113 -251 332 -571 547 -797 54 -56
135 -114 353 -251 230 -144 571 -356 700 -435 286 -174 643 -394 892 -550 189
-118 270 -163 292 -163 28 0 66 22 306 175 28 18 178 111 335 208 672 412
1426 881 1596 992 l111 72 31 79 c66 165 132 445 132 561 l0 31 -97 -38 c-162
-64 -277 -104 -498 -175 -686 -218 -1013 -370 -1367 -632 -309 -229 -607 -563
-740 -828 -17 -33 -32 -62 -34 -64 -2 -2 -41 19 -86 46 -46 28 -303 185 -573
348 -922 561 -1037 638 -1229 828 -179 178 -340 405 -455 641 -86 175 -131
297 -175 474 -74 293 -70 213 -73 1288 l-4 971 220 144 c121 79 226 149 235
154 10 7 20 48 31 125 9 63 18 123 21 133 3 9 2 17 -3 16 -4 0 -76 -44 -159
-97z"/>
<path d="M5354 5434 c30 -225 39 -392 38 -676 0 -170 1 -308 3 -308 8 0 45
130 60 210 26 139 30 298 10 435 -16 114 -69 298 -102 355 -14 24 -14 24 -9
-16z"/>
<path d="M5690 5043 c0 -15 7 -73 15 -127 8 -55 15 -115 15 -134 0 -20 3 -33
6 -29 9 9 74 209 74 226 -1 9 -25 33 -55 54 l-55 38 0 -28z"/>
<path d="M1181 4959 c-5 -13 -21 -51 -36 -84 -43 -96 -94 -236 -131 -363 -159
-537 -176 -1084 -49 -1577 89 -347 183 -515 419 -750 290 -289 655 -499 1032
-594 152 -39 276 -60 385 -68 85 -6 87 -5 94 18 4 13 42 94 84 179 l78 156
-181 12 c-328 22 -609 98 -906 247 -406 204 -718 533 -864 910 -44 116 -65
217 -72 363 -6 107 2 279 12 269 3 -2 18 -67 33 -144 39 -190 88 -331 171
-498 304 -611 971 -995 1734 -998 116 -1 171 2 173 10 2 6 32 53 67 105 34 51
65 98 69 104 4 7 -16 20 -55 34 -95 35 -395 163 -478 205 -193 97 -449 262
-625 401 -420 334 -724 761 -861 1209 -69 223 -101 511 -85 750 4 66 7 122 5
124 -2 2 -8 -7 -13 -20z"/>
<path d="M6086 4730 c-186 -401 -370 -675 -626 -931 -169 -169 -332 -302 -625
-506 -115 -81 -273 -191 -350 -245 -137 -95 -398 -295 -486 -372 -36 -31 -29
-28 36 17 196 134 390 237 865 459 434 204 655 346 873 561 104 103 262 290
324 383 l33 50 -2 335 -3 334 -39 -85z"/>
<path d="M5135 4053 c-218 -14 -459 -60 -593 -114 -279 -111 -473 -336 -541
-629 -19 -80 -43 -280 -35 -289 4 -4 145 107 156 123 4 6 10 33 13 61 19 147
112 332 202 400 110 84 214 115 408 121 l140 5 -52 -31 c-51 -30 -163 -141
-163 -161 0 -35 483 362 594 489 l28 32 -54 -2 c-29 -1 -75 -3 -103 -5z"/>
<path d="M6040 3585 c-95 -96 -243 -228 -335 -296 -170 -128 -449 -276 -860
-454 -547 -239 -823 -399 -1097 -639 -269 -235 -505 -599 -646 -998 -17 -45
-39 -107 -51 -136 -11 -28 -19 -52 -17 -52 2 0 27 42 55 93 115 206 315 460
519 659 171 166 265 242 462 373 264 175 513 300 930 467 433 173 649 282 835
422 60 45 229 198 268 243 l27 31 -2 186 -3 186 -85 -85z"/>
<path d="M6064 2851 c-80 -65 -245 -171 -369 -238 -131 -71 -286 -139 -591
-261 -555 -222 -857 -392 -1162 -656 -281 -243 -500 -521 -656 -833 -36 -72
-66 -135 -66 -138 0 -4 25 28 56 71 219 306 515 593 814 790 349 229 589 338
1184 536 455 151 662 236 805 328 l51 32 0 209 c0 115 -1 209 -3 209 -1 0 -30
-22 -63 -49z"/>
<path d="M1381 2045 c172 -220 385 -438 533 -549 191 -143 460 -269 706 -331
54 -14 107 -25 117 -25 13 0 24 17 41 64 12 36 22 69 22 74 0 6 -29 15 -65 21
-98 17 -347 95 -455 141 -344 149 -618 325 -815 524 -55 56 -93 92 -84 81z"/>
</g>
</svg>
