<?xml version="1.0" standalone="no"?>
<!DOCTYPE svg PUBLIC "-//W3C//DTD SVG 20010904//EN"
 "http://www.w3.org/TR/2001/REC-SVG-20010904/DTD/svg10.dtd">
<svg version="1.0" xmlns="http://www.w3.org/2000/svg"
 width="449.000000pt" height="444.000000pt" viewBox="0 0 449.000000 444.000000"
 preserveAspectRatio="xMidYMid meet">

<g transform="translate(0.000000,444.000000) scale(0.100000,-0.100000)"
fill="#000000" stroke="none">
<path d="M2005 3978 c-26 -10 -886 -507 -1238 -716 -71 -42 -134 -85 -139 -97
-6 -11 -16 -40 -23 -65 -10 -42 -14 -45 -53 -53 -60 -12 -89 -50 -97 -129 -3
-35 -5 -601 -3 -1258 3 -1103 4 -1197 20 -1226 33 -61 7 -59 883 -59 745 0
802 1 832 18 54 29 57 44 63 262 l5 200 381 550 c209 303 485 702 613 887 128
186 241 348 251 360 17 22 26 23 192 28 269 8 263 0 263 335 0 283 1 279 -123
341 -45 23 -365 174 -710 335 l-627 294 -230 2 c-150 1 -240 -2 -260 -9z m913
-489 c295 -138 592 -276 659 -308 l123 -56 0 -97 0 -96 -159 -4 c-143 -3 -162
-5 -188 -24 -15 -12 -129 -167 -252 -345 -837 -1212 -1064 -1544 -1078 -1577
-12 -27 -18 -80 -21 -199 l-4 -163 -644 0 -644 0 0 1095 0 1095 28 0 c66 0
111 59 112 145 0 17 4 35 8 41 4 6 165 102 357 214 193 112 476 277 630 367
l280 163 128 0 128 0 537 -251z"/>
</g>
</svg>
