<?xml version="1.0" standalone="no"?>
<!DOCTYPE svg PUBLIC "-//W3C//DTD SVG 20010904//EN"
 "http://www.w3.org/TR/2001/REC-SVG-20010904/DTD/svg10.dtd">
<svg version="1.0" xmlns="http://www.w3.org/2000/svg"
 width="315.000000pt" height="416.000000pt" viewBox="0 0 315.000000 416.000000"
 preserveAspectRatio="xMidYMid meet">

<g transform="translate(0.000000,416.000000) scale(0.100000,-0.100000)"
fill="#000000" stroke="none">
<path d="M334 4149 c-2 -3 -17 -6 -35 -7 -48 -1 -105 -47 -134 -108 -14 -29
-25 -59 -25 -66 0 -8 -4 -18 -9 -23 -11 -11 -66 -273 -81 -385 -6 -41 -15
-104 -20 -140 -5 -36 -10 -155 -10 -265 -1 -218 16 -358 67 -540 41 -148 160
-431 201 -477 8 -10 11 -18 7 -18 -4 0 -1 -8 8 -18 8 -9 20 -28 26 -42 12 -28
26 -51 58 -97 13 -17 23 -35 23 -38 0 -4 14 -24 30 -45 17 -21 30 -41 30 -45
0 -4 18 -30 39 -59 185 -241 326 -384 516 -524 140 -103 323 -183 500 -219
101 -21 340 -31 465 -19 52 4 113 9 135 10 l40 1 0 -140 c0 -146 -15 -323 -41
-484 -21 -126 -21 -265 0 -313 9 -20 31 -48 49 -62 32 -24 41 -26 145 -26 106
0 112 1 143 27 41 35 68 97 79 181 4 37 13 108 20 157 6 50 18 142 26 206 9
75 15 204 15 367 l0 252 84 85 c47 47 85 89 85 93 0 4 18 26 40 47 22 21 40
43 40 48 0 6 20 34 45 63 25 28 45 57 45 63 0 6 3 11 8 11 4 0 12 10 18 23 6
12 29 58 52 102 52 105 89 217 107 329 9 56 6 283 -4 341 -5 28 -14 79 -21
115 -6 36 -15 69 -21 75 -5 5 -9 18 -9 28 0 10 -6 33 -14 50 -7 18 -23 57 -35
87 -28 71 -112 239 -139 278 -12 16 -22 33 -22 37 0 4 -14 24 -30 45 -17 21
-30 41 -30 45 0 10 -64 94 -135 176 -33 39 -77 92 -97 118 -20 27 -60 68 -88
92 -28 24 -86 74 -128 112 -42 37 -81 67 -85 67 -5 0 -29 17 -55 38 -26 20
-60 45 -77 55 -33 19 -288 145 -320 158 -42 17 -224 69 -315 89 -157 35 -181
40 -275 50 -225 25 -296 31 -373 30 -46 0 -88 2 -92 5 -13 8 -421 11 -426 4z
m756 -464 c69 -8 161 -21 205 -29 223 -42 484 -144 609 -240 19 -14 38 -26 42
-26 4 0 35 -25 69 -55 35 -30 67 -55 72 -55 20 0 303 -312 303 -335 0 -3 18
-28 40 -54 22 -26 40 -50 40 -53 0 -3 17 -35 38 -69 36 -60 122 -231 127 -254
1 -5 5 -18 8 -27 85 -229 72 -398 -45 -590 -41 -67 -93 -137 -101 -138 -9 0
-16 16 -57 135 -39 112 -40 114 -81 204 -19 40 -32 74 -29 75 3 0 -5 16 -18
34 -13 17 -21 32 -17 32 3 0 -6 21 -21 48 -15 26 -40 72 -57 102 -17 30 -38
67 -49 82 -10 14 -18 29 -18 33 0 4 -20 38 -45 76 -25 38 -45 71 -45 75 0 3
-13 23 -30 44 -16 21 -30 41 -30 45 0 4 -20 31 -45 59 -25 29 -45 57 -45 61 0
5 -31 43 -70 86 -38 42 -70 81 -70 86 0 11 -233 243 -244 243 -4 0 -43 32 -85
70 -43 39 -81 70 -85 70 -3 0 -29 17 -56 38 -27 20 -72 54 -99 75 -27 20 -52
37 -55 37 -4 0 -37 20 -75 45 -38 25 -73 45 -78 45 -5 0 -18 9 -28 20 -21 24
-31 23 125 5z m-550 -285 c14 -10 48 -30 75 -44 28 -15 68 -38 90 -51 22 -13
56 -33 75 -45 57 -33 73 -44 111 -72 20 -16 40 -28 44 -28 8 0 84 -56 170
-127 36 -29 68 -53 72 -53 11 0 293 -283 293 -294 0 -4 27 -39 60 -76 33 -37
60 -71 60 -75 0 -4 14 -24 30 -45 17 -21 30 -41 30 -45 0 -4 14 -24 30 -45 17
-21 30 -42 30 -48 0 -5 6 -15 14 -21 8 -7 22 -26 31 -44 9 -18 27 -50 41 -72
113 -191 273 -569 300 -710 l6 -32 -69 -14 c-38 -8 -130 -14 -208 -14 -116 0
-154 4 -225 24 -106 29 -227 87 -276 132 -11 10 -26 19 -34 19 -16 0 -370 354
-370 371 0 6 -20 36 -45 65 -25 28 -45 55 -45 59 0 4 -13 24 -30 45 -16 21
-30 41 -30 44 0 3 -19 36 -43 73 -83 132 -177 339 -220 483 -63 209 -76 492
-31 657 4 14 27 8 64 -17z"/>
</g>
</svg>
