<?xml version="1.0" standalone="no"?>
<!DOCTYPE svg PUBLIC "-//W3C//DTD SVG 20010904//EN"
 "http://www.w3.org/TR/2001/REC-SVG-20010904/DTD/svg10.dtd">
<svg version="1.0" xmlns="http://www.w3.org/2000/svg"
 width="557.000000pt" height="569.000000pt" viewBox="0 0 557.000000 569.000000"
 preserveAspectRatio="xMidYMid meet">

<g transform="translate(0.000000,569.000000) scale(0.100000,-0.100000)"
fill="#000000" stroke="none">
<path d="M2542 5660 c-638 -62 -1228 -342 -1682 -799 -477 -480 -757 -1087
-820 -1776 -50 -546 80 -1155 347 -1630 438 -779 1168 -1284 2038 -1411 229
-33 568 -28 804 12 459 77 895 271 1256 560 572 457 938 1109 1042 1854 24
174 24 576 0 750 -70 499 -249 940 -542 1335 -444 598 -1087 982 -1830 1091
-122 18 -486 26 -613 14z m478 -40 c506 -45 971 -225 1389 -537 158 -118 410
-372 532 -535 289 -387 465 -811 540 -1298 19 -122 23 -186 23 -405 0 -219 -4
-283 -23 -405 -96 -626 -358 -1148 -795 -1586 -279 -278 -567 -469 -919 -608
-708 -280 -1514 -241 -2187 105 l-116 60 3 122 c6 292 63 477 214 707 182 276
533 530 939 681 97 36 60 38 -105 5 -313 -62 -531 -168 -717 -346 l-83 -80
-150 -30 c-320 -63 -422 -58 -586 27 -85 44 -161 109 -241 204 -68 83 -138
194 -138 220 0 10 28 33 68 56 110 65 604 367 690 423 l80 51 37 102 c20 56
43 120 51 142 19 54 18 60 -8 72 -13 6 -48 31 -79 56 l-57 46 -6 -42 -7 -42
-21 25 c-27 34 -72 124 -94 191 l-18 54 -12 -50 c-7 -27 -13 -63 -13 -80 -2
-29 -2 -29 -17 -10 -35 45 -125 246 -146 325 -17 66 -22 114 -22 217 -1 72 -4
126 -8 120 -3 -7 -24 -46 -47 -87 l-41 -75 0 91 c0 135 34 253 110 384 21 35
28 64 33 130 4 47 14 114 23 150 18 69 62 166 71 156 3 -3 13 -33 23 -68 16
-58 17 -60 24 -33 18 70 95 212 182 333 l53 74 7 -51 c4 -28 10 -51 14 -51 5
0 27 37 50 83 39 76 118 193 125 185 2 -2 4 -32 6 -68 1 -36 4 -68 6 -72 2 -4
22 6 44 22 22 16 44 30 49 32 5 2 16 36 24 77 29 137 106 308 181 396 l32 39
79 -71 c44 -39 121 -114 171 -167 l92 -95 58 20 c99 34 332 95 468 123 72 15
139 29 150 33 11 3 -11 -27 -52 -71 -97 -103 -143 -162 -117 -149 88 47 590
171 609 151 3 -2 -31 -34 -76 -71 -44 -37 -73 -67 -65 -67 8 0 62 6 118 14
143 20 318 29 318 17 0 -6 -10 -16 -22 -22 -33 -17 -137 -93 -138 -100 0 -3
55 -9 123 -12 67 -3 160 -13 206 -21 84 -16 239 -61 253 -74 4 -4 -45 -30
-109 -57 -63 -28 -115 -54 -115 -59 1 -6 49 -24 109 -41 130 -38 299 -105 370
-148 29 -18 53 -34 53 -37 0 -3 -53 -15 -117 -28 -65 -13 -121 -26 -125 -28
-5 -3 22 -22 59 -41 130 -69 277 -176 386 -282 l58 -56 -130 -5 -129 -5 49
-55 c72 -79 183 -249 240 -365 45 -93 109 -269 109 -301 0 -8 -41 15 -102 56
-93 64 -126 80 -101 48 21 -26 103 -219 132 -311 36 -112 67 -263 76 -367 l6
-75 -21 25 c-68 80 -142 168 -155 185 -14 19 -15 17 -10 -20 14 -120 14 -172
5 -285 -26 -301 -135 -634 -285 -870 l-35 -55 0 51 c0 45 -11 125 -26 193 -4
18 -15 -4 -44 -91 -83 -247 -245 -516 -434 -718 -26 -27 -48 -50 -49 -50 -1 0
-1 69 1 152 2 84 2 180 0 212 l-3 60 -71 -85 c-136 -160 -303 -317 -480 -449
-147 -110 -474 -321 -474 -305 0 2 21 51 46 107 66 145 144 338 136 338 -3 0
-62 -38 -131 -84 -238 -160 -441 -355 -573 -553 -54 -81 -68 -113 -50 -113 4
0 43 -7 87 -14 350 -62 760 -46 1110 44 499 127 903 357 1261 714 510 511 794
1198 794 1921 0 451 -92 837 -299 1260 -210 428 -502 774 -881 1045 -342 244
-736 397 -1175 456 -194 26 -515 24 -704 -5 -567 -87 -1053 -330 -1470 -735
-131 -129 -208 -218 -319 -373 -275 -384 -455 -851 -513 -1328 -18 -148 -15
-514 5 -665 77 -576 320 -1099 713 -1533 117 -129 224 -224 418 -370 199 -149
203 -153 85 -79 -225 142 -530 426 -696 647 -303 405 -474 822 -550 1340 -25
168 -25 572 0 740 39 269 108 521 203 744 193 455 524 870 928 1163 516 374
1164 554 1795 498z"/>
<path d="M2329 4728 c-57 -29 -109 -67 -163 -118 -46 -44 -76 -67 -73 -55 3
11 11 40 17 65 7 25 23 65 36 89 13 24 23 46 21 48 -2 2 -31 -14 -63 -36 -66
-44 -149 -126 -188 -185 l-26 -39 0 44 c0 24 4 60 10 79 l10 34 -46 -45 c-52
-49 -133 -167 -167 -241 -12 -26 -25 -48 -29 -48 -11 0 -10 126 1 172 l9 38
-29 -21 c-58 -41 -328 -353 -316 -365 1 -1 31 1 67 5 36 5 67 7 69 4 3 -2 -13
-18 -34 -36 -157 -128 -245 -314 -263 -554 -7 -90 -1 -121 13 -65 10 42 176
322 190 322 2 0 -5 -22 -16 -50 -47 -125 -61 -341 -32 -494 l17 -89 22 121
c40 220 105 402 191 539 39 62 159 191 202 216 l30 18 -44 -83 c-83 -157 -146
-395 -144 -548 0 -66 24 -191 31 -170 3 8 13 44 21 80 20 87 57 184 67 173 4
-4 17 -33 29 -63 25 -64 60 -115 61 -88 0 32 48 158 86 225 l38 68 12 -83 c15
-100 47 -211 81 -272 13 -25 21 -36 18 -25 -4 11 -14 56 -22 100 -20 104 -13
364 15 525 30 170 37 177 38 37 1 -132 20 -242 61 -367 27 -81 71 -173 98
-205 l17 -20 -7 20 c-21 59 -69 325 -60 333 2 3 7 -4 10 -14 33 -103 124 -226
208 -279 27 -18 27 -16 -17 71 -96 188 -142 384 -133 569 3 61 12 137 21 170
19 68 94 229 122 262 l19 21 90 -38 c122 -51 206 -91 293 -139 39 -22 72 -38
72 -36 0 5 -155 200 -195 246 -18 20 -34 42 -36 48 -3 9 -28 3 -86 -18 -79
-29 -82 -29 -88 -11 -6 19 -10 18 -78 -16 -40 -20 -86 -47 -104 -60 -17 -13
-34 -24 -37 -24 -14 0 91 185 136 240 26 33 44 60 39 60 -5 0 -47 -19 -92 -42z"/>
<path d="M3084 4719 c-135 -16 -415 -87 -429 -108 -3 -5 9 -14 27 -20 127 -45
352 -245 495 -442 77 -106 176 -296 209 -401 l17 -57 86 -3 c47 -2 87 -3 89
-2 8 3 -45 129 -88 212 -58 111 -139 223 -241 335 -38 42 -64 77 -57 77 25 0
176 -94 253 -158 150 -125 281 -330 340 -536 36 -127 40 -119 -62 -112 -49 4
-110 9 -137 12 -26 4 -47 2 -44 -2 126 -263 168 -419 188 -704 15 -208 -12
-490 -59 -614 -16 -41 -6 -31 37 37 136 215 187 394 181 624 -2 67 -1 119 2
117 4 -2 26 -47 49 -100 23 -54 51 -111 61 -129 51 -85 148 -337 150 -385 1
-58 16 18 22 115 14 208 -23 435 -103 650 -27 73 -50 136 -50 140 0 11 123
-81 179 -135 61 -59 137 -146 191 -220 l32 -45 -7 50 c-19 141 -85 326 -154
432 -53 82 -162 184 -306 288 -41 30 259 -63 356 -109 29 -14 57 -26 61 -26
23 0 -48 95 -142 191 -97 98 -113 110 -216 161 l-112 55 129 17 c86 12 154 16
202 12 l72 -7 -62 60 c-78 75 -197 136 -356 181 l-118 34 102 33 c55 17 126
38 156 44 l54 12 -32 14 c-17 7 -75 25 -128 40 -84 24 -114 27 -248 27 -174 1
-174 1 -40 69 l88 44 -38 7 c-68 11 -240 6 -319 -9 -43 -8 -79 -13 -81 -11
-11 11 415 166 457 166 21 1 22 2 9 10 -33 19 -257 32 -353 20 -111 -13 -226
-44 -283 -75 -57 -31 -54 -18 5 28 26 20 65 53 87 72 l40 35 -45 -1 c-25 -1
-77 -5 -116 -10z"/>
<path d="M2425 4298 c-7 -18 -18 -74 -24 -125 -25 -207 33 -438 143 -568 l34
-40 -30 115 c-36 137 -47 290 -28 398 6 39 14 72 16 72 13 0 96 -48 149 -86
88 -63 247 -230 352 -370 l22 -29 -11 40 c-42 161 -185 357 -348 477 -79 58
-234 148 -255 148 -3 0 -12 -15 -20 -32z"/>
<path d="M1811 3135 c-1 -58 22 -163 44 -205 18 -35 14 -37 -23 -11 -15 10
-59 37 -98 59 -43 25 -95 67 -134 108 l-62 67 7 -54 c8 -68 33 -149 52 -171 9
-10 102 -45 207 -78 105 -34 274 -88 375 -121 116 -37 233 -84 320 -126 75
-37 141 -69 146 -71 6 -1 -24 29 -65 68 -72 69 -74 71 -35 56 159 -66 436
-256 635 -437 l114 -104 -39 70 c-40 72 -108 179 -146 228 -11 15 -18 27 -15
27 2 0 33 -17 68 -39 60 -37 193 -112 212 -120 14 -6 -32 67 -88 138 -52 66
-203 194 -289 244 -27 16 -46 31 -44 33 12 13 366 -136 469 -197 26 -16 48
-24 48 -19 0 18 -141 159 -209 209 -36 26 -129 86 -206 131 -167 99 -265 170
-322 233 -24 26 -43 41 -43 34 0 -6 22 -56 49 -109 26 -54 46 -98 44 -98 -2 0
-40 19 -86 41 -110 56 -182 105 -255 178 -34 34 -62 59 -62 58 0 -20 50 -148
80 -205 21 -40 33 -68 26 -64 -6 5 -36 17 -66 27 -117 38 -261 124 -337 203
l-43 44 6 -49 c9 -75 31 -146 58 -186 14 -20 23 -37 19 -37 -3 0 -42 24 -87
53 -85 57 -174 145 -206 206 l-19 36 0 -50z"/>
<path d="M3009 3078 c47 -64 129 -145 196 -193 89 -64 318 -175 332 -162 5 6
-79 117 -108 144 -33 30 -189 122 -274 162 -38 17 -91 45 -117 62 -27 16 -51
29 -54 29 -3 0 8 -19 25 -42z"/>
<path d="M1890 2409 c-65 -96 -68 -103 -44 -95 11 3 53 10 94 16 68 10 81 15
145 65 39 30 79 63 90 75 l18 20 -124 0 -124 -1 -55 -80z"/>
<path d="M3853 1961 c-103 -159 -240 -328 -377 -466 -90 -89 -118 -122 -90
-105 237 143 393 308 476 503 29 67 60 159 55 163 -1 0 -30 -42 -64 -95z"/>
<path d="M3565 1884 c-16 -13 -172 -120 -345 -236 -352 -236 -396 -268 -527
-381 -78 -68 -261 -269 -271 -298 -5 -12 254 145 414 252 198 132 372 275 544
448 131 132 231 242 218 241 -1 -1 -16 -12 -33 -26z"/>
<path d="M3030 1829 c-244 -90 -305 -116 -495 -209 -571 -280 -812 -564 -870
-1025 l-6 -50 52 90 c72 126 158 232 290 360 62 61 130 128 151 149 43 45 44
44 22 -15 -43 -122 -65 -245 -70 -399 -3 -100 -2 -150 4 -140 5 8 13 35 17 60
26 164 141 411 287 617 152 214 408 428 667 558 64 32 85 47 64 44 -5 -1 -55
-19 -113 -40z"/>
</g>
</svg>
