<?xml version="1.0" standalone="no"?>
<!DOCTYPE svg PUBLIC "-//W3C//DTD SVG 20010904//EN"
 "http://www.w3.org/TR/2001/REC-SVG-20010904/DTD/svg10.dtd">
<svg version="1.0" xmlns="http://www.w3.org/2000/svg"
 width="512.000000pt" height="512.000000pt" viewBox="0 0 512.000000 512.000000"
 preserveAspectRatio="xMidYMid meet">
<metadata>
Created by potrace 1.16, written by Peter Selinger 2001-2019
</metadata>
<g transform="translate(0.000000,512.000000) scale(0.100000,-0.100000)"
fill="#000000" stroke="none">
<path d="M717 5109 c-50 -29 -47 120 -47 -2549 0 -2680 -3 -2522 49 -2550 27
-14 3655 -14 3682 0 52 28 49 -91 49 2075 0 1771 -2 2011 -15 2039 -8 17 -233
249 -498 514 l-483 482 -1359 0 c-905 -1 -1366 -4 -1378 -11z m2565 -645 l3
-456 28 -24 28 -24 455 0 454 0 0 -1880 0 -1880 -1690 0 -1690 0 0 2360 0
2360 1205 0 1204 0 3 -456z m508 1 l305 -305 -308 0 -307 0 0 305 c0 168 1
305 3 305 1 0 139 -137 307 -305z"/>
<path d="M2475 3554 c-22 -2 -90 -9 -151 -14 -402 -36 -732 -186 -857 -387
-58 -94 -57 -79 -57 -888 0 -809 -1 -794 57 -888 151 -244 577 -398 1103 -400
530 -1 960 154 1113 400 58 95 57 79 57 889 0 666 -2 749 -17 796 -68 215
-299 363 -708 452 -116 26 -441 50 -540 40z m415 -300 c136 -21 212 -41 315
-82 101 -40 121 -51 183 -100 82 -65 90 -122 24 -184 -121 -113 -344 -190
-636 -218 -258 -24 -544 1 -764 69 -156 48 -303 146 -317 211 -16 73 75 153
250 222 96 38 147 52 265 75 169 33 496 36 680 7z"/>
</g>
</svg>
