<?xml version="1.0" standalone="no"?>
<!DOCTYPE svg PUBLIC "-//W3C//DTD SVG 20010904//EN"
 "http://www.w3.org/TR/2001/REC-SVG-20010904/DTD/svg10.dtd">
<svg version="1.0" xmlns="http://www.w3.org/2000/svg"
 width="310.000000pt" height="403.000000pt" viewBox="0 0 310.000000 403.000000"
 preserveAspectRatio="xMidYMid meet">

<g transform="translate(0.000000,403.000000) scale(0.100000,-0.100000)"
fill="#000000" stroke="none">
<path d="M68 4003 c-26 -31 -38 -60 -38 -98 0 -50 34 -180 77 -295 l35 -94
-31 -201 c-84 -535 -96 -677 -96 -1155 0 -451 14 -682 81 -1370 14 -146 23
-285 20 -308 -3 -24 -21 -93 -40 -153 -50 -157 -61 -219 -46 -263 23 -71 -96
-66 1450 -66 l1396 0 54 28 c78 40 95 68 94 155 -1 52 -10 96 -32 161 -41 116
-42 193 -8 431 74 522 100 861 100 1305 0 451 -23 720 -104 1202 l-39 230 41
132 c25 81 42 159 45 206 5 72 4 78 -22 108 -56 67 58 62 -1503 62 -1339 0
-1420 -1 -1434 -17z m2836 -99 c25 -10 19 -76 -18 -194 l-32 -105 -1308 -9
c-1105 -7 -1310 -6 -1317 5 -14 22 -78 223 -85 268 l-7 41 1376 0 c756 0 1382
-3 1391 -6z m-37 -609 c138 -811 146 -1426 32 -2315 -16 -129 -36 -275 -42
-325 l-13 -90 -1306 -3 -1306 -2 -6 37 c-8 53 -53 531 -70 758 -52 656 -45
1174 19 1646 20 140 63 426 70 456 l5 23 678 3 c372 1 954 2 1292 2 l615 0 32
-190z m2 -2933 c17 -48 37 -114 43 -145 12 -54 11 -58 -10 -80 l-23 -22 -1375
-5 -1375 -5 6 35 c4 19 24 89 46 156 21 66 39 128 39 137 0 16 95 17 1309 17
l1308 0 32 -88z"/>
<path d="M708 3309 c-34 -28 -77 -196 -103 -399 -19 -157 -19 -216 1 -348 45
-303 226 -636 488 -898 189 -188 344 -262 571 -271 105 -5 250 6 323 24 l22 5
0 -153 c0 -134 -9 -249 -36 -457 -6 -47 -4 -56 16 -77 42 -45 102 -23 119 43
6 21 20 130 32 242 16 154 20 237 15 333 -3 71 -2 127 3 127 15 0 170 182 225
265 159 239 163 471 13 770 -167 336 -445 590 -769 704 -183 65 -354 90 -673
98 -185 4 -233 2 -247 -8z m417 -139 c226 -16 410 -57 560 -125 312 -140 636
-552 673 -857 22 -177 -31 -314 -191 -493 l-45 -50 -22 75 c-72 246 -172 457
-318 670 -222 325 -470 529 -927 763 l-50 26 90 0 c50 1 153 -4 230 -9z m-183
-226 c231 -130 354 -220 498 -364 247 -248 431 -566 526 -910 13 -47 24 -90
24 -96 0 -21 -131 -39 -275 -39 -161 0 -228 17 -348 89 -265 158 -560 601
-618 926 -23 134 -5 480 26 480 7 0 82 -39 167 -86z"/>
</g>
</svg>
