<?xml version="1.0" standalone="no"?>
<!DOCTYPE svg PUBLIC "-//W3C//DTD SVG 20010904//EN"
 "http://www.w3.org/TR/2001/REC-SVG-20010904/DTD/svg10.dtd">
<svg version="1.0" xmlns="http://www.w3.org/2000/svg"
 width="323.000000pt" height="416.000000pt" viewBox="0 0 323.000000 416.000000"
 preserveAspectRatio="xMidYMid meet">

<g transform="translate(0.000000,416.000000) scale(0.100000,-0.100000)"
fill="#000000" stroke="none">
<path d="M86 4129 c-79 -69 -76 -197 11 -452 36 -108 37 -110 25 -185 -6 -43
-23 -153 -37 -247 -51 -339 -66 -532 -72 -890 -7 -448 9 -760 78 -1471 l29
-311 -40 -129 c-56 -177 -67 -249 -52 -321 6 -31 20 -65 29 -76 44 -49 -12
-47 1497 -47 1401 0 1416 0 1470 20 63 24 117 78 136 135 20 60 7 184 -29 291
-38 112 -38 145 -6 379 77 549 100 855 100 1325 0 486 -18 697 -101 1205 l-36
220 37 122 c75 249 65 363 -37 430 l-42 28 -1462 3 -1463 2 -35 -31z m2824
-226 c0 -4 -10 -42 -22 -85 l-23 -78 -947 -2 c-522 -2 -1086 -3 -1255 -3
l-308 0 -27 75 c-15 41 -27 81 -27 88 -1 9 266 12 1304 12 718 0 1305 -3 1305
-7z m-61 -465 c96 -481 138 -1015 120 -1530 -11 -334 -32 -565 -95 -1023 -13
-99 -24 -181 -24 -182 0 -2 -559 -3 -1243 -3 l-1243 0 -27 292 c-101 1080
-100 1520 4 2223 16 110 32 215 35 232 l6 33 957 3 c526 1 1078 3 1228 5 l272
2 10 -52z m33 -3077 c16 -46 27 -90 24 -98 -5 -11 -225 -13 -1306 -13 -715 0
-1300 3 -1300 8 -1 4 12 49 27 99 l28 93 1249 -3 1249 -2 29 -84z"/>
<path d="M772 3460 c-49 -12 -79 -45 -103 -117 -67 -203 -97 -556 -64 -754 46
-276 204 -587 427 -838 268 -304 527 -402 932 -355 l49 6 -6 -138 c-4 -77 -14
-184 -22 -239 -18 -123 -19 -222 -2 -255 39 -78 211 -79 251 -2 31 60 66 364
66 576 l0 159 65 68 c131 139 221 281 260 409 23 76 31 242 15 337 -39 244
-199 526 -419 742 -214 210 -468 328 -806 375 -223 32 -562 45 -643 26z m598
-315 c264 -43 445 -129 624 -296 195 -182 366 -490 366 -659 0 -26 -7 -71 -16
-101 -16 -54 -98 -199 -113 -199 -5 0 -23 42 -41 93 -100 279 -285 582 -486
796 -111 119 -260 235 -470 368 -17 11 -16 12 11 12 17 1 73 -6 125 -14z
m-363 -221 c368 -213 592 -440 788 -799 81 -148 185 -418 165 -430 -4 -2 -47
-9 -95 -14 -204 -24 -361 36 -534 203 -245 237 -431 589 -448 851 -6 101 4
245 17 245 5 0 53 -25 107 -56z"/>
</g>
</svg>
