<?xml version="1.0" standalone="no"?>
<!DOCTYPE svg PUBLIC "-//W3C//DTD SVG 20010904//EN"
 "http://www.w3.org/TR/2001/REC-SVG-20010904/DTD/svg10.dtd">
<svg version="1.0" xmlns="http://www.w3.org/2000/svg"
 width="467.000000pt" height="467.000000pt" viewBox="0 0 467.000000 467.000000"
 preserveAspectRatio="xMidYMid meet">
<metadata>
Created by potrace 1.16, written by Peter Selinger 2001-2019
</metadata>
<g transform="translate(0.000000,467.000000) scale(0.100000,-0.100000)"
fill="#000000" stroke="none">
<path d="M269 4518 c-74 -39 -122 -101 -138 -181 -8 -36 -11 -637 -9 -2027 l3
-1975 24 -53 c27 -59 74 -105 140 -136 l46 -21 1975 -3 c1390 -2 1991 1 2027
9 80 16 142 64 181 138 l32 63 0 1411 c0 915 -4 1428 -11 1457 -17 76 -58 176
-101 242 -58 92 -888 923 -985 988 -74 49 -171 91 -253 109 -29 7 -542 11
-1457 11 l-1411 0 -63 -32z m593 -965 l3 -638 24 -48 c30 -61 68 -99 128 -128
l48 -24 905 0 c1017 0 939 -6 1021 76 82 82 79 49 79 766 l0 635 38 -7 c110
-20 123 -31 589 -498 379 -381 443 -450 464 -497 l24 -55 3 -1323 2 -1322
-190 0 -190 0 0 623 c0 693 1 677 -67 756 -44 52 -111 87 -187 96 l-58 8 121
121 c67 67 121 126 121 131 0 6 -117 127 -259 269 l-260 260 -388 -390 -388
-389 -685 -5 -685 -5 -57 -28 c-61 -30 -95 -64 -131 -131 -22 -41 -22 -43 -25
-678 l-3 -638 -184 0 -185 0 0 1850 0 1850 185 0 184 0 3 -637z m1804 619 c44
-35 44 -40 44 -546 l0 -486 -29 -32 -29 -33 -311 0 -310 0 -30 29 -31 30 0
499 0 499 29 29 29 29 309 0 c277 0 310 -2 329 -18z m629 -1883 l48 -50 -34
-35 c-19 -20 -245 -247 -504 -505 l-469 -470 -55 56 -56 55 190 190 c180 180
192 190 230 192 39 1 39 1 6 5 l-34 5 304 304 c167 167 309 304 315 304 6 0
32 -23 59 -51z m-1235 -693 c0 -2 -42 -46 -94 -97 -101 -101 -116 -127 -136
-234 -7 -38 -16 -81 -21 -95 -4 -14 -13 -52 -19 -85 -7 -33 -23 -105 -36 -160
-13 -55 -26 -124 -30 -154 l-7 -54 29 6 c243 50 266 55 419 92 55 13 120 27
145 31 25 3 56 12 70 20 14 7 187 175 385 373 l360 361 162 0 163 0 0 -555 0
-555 -1115 0 -1115 0 0 555 0 555 420 0 c231 0 420 -2 420 -4z"/>
<path d="M3530 3039 c-30 -16 -90 -66 -134 -110 l-79 -81 254 -254 c169 -169
261 -254 275 -254 21 0 156 131 186 180 8 14 23 59 33 100 18 77 18 76 -12
222 -3 15 -14 35 -24 44 -10 9 -19 23 -19 30 0 19 -91 96 -151 127 -50 25 -63
27 -164 27 -103 -1 -114 -3 -165 -31z"/>
</g>
</svg>
