<?xml version="1.0" standalone="no"?>
<!DOCTYPE svg PUBLIC "-//W3C//DTD SVG 20010904//EN"
 "http://www.w3.org/TR/2001/REC-SVG-20010904/DTD/svg10.dtd">
<svg version="1.0" xmlns="http://www.w3.org/2000/svg"
 width="518.000000pt" height="518.000000pt" viewBox="0 0 518.000000 518.000000"
 preserveAspectRatio="xMidYMid meet">

<g transform="translate(0.000000,518.000000) scale(0.100000,-0.100000)"
fill="#000000" stroke="none">
<path d="M1220 5164 c-19 -2 -84 -9 -145 -14 -178 -17 -563 -88 -646 -118 -10
-4 84 -7 209 -7 245 -1 369 -14 543 -60 446 -116 736 -399 852 -833 31 -116
31 -118 31 -367 0 -229 -2 -263 -27 -408 -15 -86 -45 -216 -66 -288 -34 -116
-36 -128 -17 -106 11 14 43 53 71 86 27 33 50 59 51 58 1 -1 -8 -42 -19 -92
-28 -124 -30 -500 -4 -650 63 -363 188 -732 362 -1075 97 -189 95 -188 89 -40
-12 270 -20 505 -17 509 1 2 5 -5 9 -15 47 -138 148 -324 256 -470 96 -130
330 -367 478 -484 331 -263 811 -522 1285 -695 152 -56 252 -87 239 -76 -5 4
-38 30 -74 56 -276 206 -599 539 -887 915 -94 123 -183 248 -183 256 0 3 26
-16 58 -44 197 -170 387 -262 461 -222 22 11 20 13 -33 45 -269 162 -490 496
-631 955 -53 172 -52 185 7 70 230 -449 625 -767 1105 -889 114 -29 121 -26
28 12 -118 48 -217 117 -335 236 -209 209 -357 489 -460 869 -73 269 -109 516
-135 917 -8 127 -24 284 -35 350 -97 592 -369 1007 -852 1302 -246 150 -528
245 -888 299 -100 15 -593 28 -680 18z m883 -394 c245 -105 466 -342 576 -620
78 -197 111 -369 116 -610 l4 -175 -14 135 c-35 323 -106 577 -217 778 -117
213 -320 411 -511 497 -76 35 -38 30 46 -5z m721 -78 c325 -194 594 -618 691
-1090 28 -137 48 -295 70 -552 46 -547 124 -903 279 -1262 9 -21 14 -38 11
-38 -12 0 -156 307 -195 418 -95 265 -140 495 -185 946 -48 475 -86 653 -194
906 -118 277 -317 539 -514 676 -95 66 -77 64 37 -4z m-27 -3185 c191 -317
603 -689 1125 -1017 47 -30 85 -57 83 -59 -2 -2 -52 23 -112 55 -577 308
-1007 718 -1170 1114 -45 110 -52 163 -9 66 20 -44 57 -115 83 -159z"/>
</g>
</svg>
