<?xml version="1.0" standalone="no"?>
<!DOCTYPE svg PUBLIC "-//W3C//DTD SVG 20010904//EN"
 "http://www.w3.org/TR/2001/REC-SVG-20010904/DTD/svg10.dtd">
<svg version="1.0" xmlns="http://www.w3.org/2000/svg"
 width="594.000000pt" height="521.000000pt" viewBox="0 0 594.000000 521.000000"
 preserveAspectRatio="xMidYMid meet">

<g transform="translate(0.000000,521.000000) scale(0.100000,-0.100000)"
fill="#000000" stroke="none">
<path d="M2080 5177 c-23 -12 -25 -18 -28 -98 -3 -82 -4 -85 -30 -96 -239 -94
-431 -178 -446 -196 -18 -22 -18 -32 -4 -156 3 -22 -15 -34 -177 -123 -239
-130 -235 -127 -235 -186 l0 -48 -179 -122 c-99 -67 -183 -127 -187 -133 -4
-6 -8 -32 -9 -58 -2 -25 -4 -49 -4 -52 -1 -3 -63 -57 -138 -120 -185 -153
-173 -139 -173 -206 l0 -58 -130 -125 -130 -125 0 -62 0 -62 -96 -108 c-53
-59 -100 -118 -105 -131 -22 -55 -5 -116 35 -132 23 -8 23 -9 18 -157 -4 -138
-3 -150 16 -173 l20 -25 366 -3 366 -3 2 -1187 c2 -945 6 -1192 16 -1209 l13
-23 829 0 c810 0 830 0 840 19 6 12 10 100 10 216 l0 197 397 576 c218 318
500 728 626 912 127 184 239 345 250 357 l20 23 1018 0 c629 0 1027 4 1043 10
15 5 29 21 33 37 10 36 10 439 1 475 -13 45 -42 48 -428 48 l-356 0 -53 63
c-97 116 -112 139 -110 172 5 77 2 83 -116 210 -112 120 -115 125 -115 169 0
63 -12 82 -102 160 -44 38 -87 84 -96 102 -11 23 -29 38 -64 53 -46 19 -48 22
-48 60 0 22 -4 51 -9 64 -6 15 -70 66 -173 137 -206 142 -196 132 -173 167 28
41 27 129 -1 151 -11 10 -114 66 -228 126 -199 105 -207 111 -201 135 18 73
17 126 -1 148 -13 15 -104 54 -274 117 l-255 94 3 55 c5 78 -4 112 -34 126
-37 17 -980 15 -1014 -2z m867 -184 c-3 -21 -27 -157 -52 -303 -26 -146 -64
-364 -85 -485 -21 -121 -55 -310 -74 -420 -20 -110 -38 -215 -41 -233 l-6 -33
-102 3 -101 3 -9 40 c-4 22 -25 141 -47 265 -21 124 -62 356 -90 515 -97 546
-117 670 -113 678 2 4 167 7 365 7 l361 0 -6 -37z m353 -243 c58 -21 122 -45
142 -53 l37 -15 -208 -484 c-289 -671 -311 -722 -320 -731 -11 -11 -91 22 -91
37 0 11 36 221 116 671 44 252 113 648 114 652 0 2 24 -7 53 -18 28 -12 99
-38 157 -59z m-1192 -61 c21 -116 41 -231 157 -894 25 -143 48 -268 51 -277 6
-20 -72 -77 -85 -62 -5 5 -68 162 -141 349 -73 187 -179 459 -237 604 -58 147
-100 268 -95 273 13 13 305 136 317 134 5 -2 20 -59 33 -127z m1632 -322 c85
-45 154 -86 153 -90 -3 -11 -651 -887 -678 -915 -21 -23 -22 -23 -58 -6 -21
10 -37 24 -37 31 0 12 114 281 340 803 56 129 104 241 107 248 3 6 8 12 12 12
3 0 76 -38 161 -83z m-1878 -463 c114 -291 207 -536 205 -543 -1 -8 -17 -24
-35 -34 -29 -17 -36 -18 -47 -6 -16 17 -614 946 -618 959 -2 12 263 161 278
156 5 -1 103 -241 217 -532z m-548 119 c107 -169 205 -318 215 -330 6 -7 11
-16 11 -22 0 -5 4 -11 8 -13 9 -3 72 -96 72 -105 0 -3 47 -79 105 -169 58 -89
105 -165 105 -167 0 -3 -16 -15 -36 -28 l-36 -22 -75 74 c-41 41 -212 215
-380 388 -248 256 -302 316 -291 326 27 26 222 155 233 155 7 0 38 -39 69 -87z
m2784 -68 c61 -43 112 -81 112 -85 0 -4 -23 -27 -52 -51 -518 -438 -704 -589
-722 -589 -12 0 -32 7 -44 16 l-22 15 42 57 c377 512 541 724 556 719 9 -2 68
-39 130 -82z m-2518 -882 c0 -7 -14 -20 -31 -29 l-31 -16 -97 65 c-53 36 -186
127 -296 202 -110 75 -251 171 -313 213 -62 41 -111 81 -110 88 2 7 48 49 103
95 l100 82 337 -344 c186 -189 338 -350 338 -356z m2843 527 c48 -41 87 -77
87 -80 0 -3 -183 -97 -406 -209 -355 -178 -410 -203 -433 -195 -14 5 -26 14
-26 20 0 10 120 114 528 457 113 95 130 106 146 95 10 -7 57 -47 104 -88z
m-3641 -291 c59 -41 206 -141 328 -224 121 -82 220 -153 220 -157 0 -4 -11
-15 -25 -24 -24 -16 -29 -15 -98 14 -39 17 -151 65 -247 105 -96 41 -253 107
-348 147 l-173 73 87 88 88 89 31 -19 c16 -10 78 -51 137 -92z m2623 -260
l670 -316 3 -136 3 -137 -165 0 c-94 0 -175 -5 -188 -10 -32 -15 -1328 -1901
-1339 -1949 -5 -20 -9 -107 -9 -193 l0 -158 -690 0 -690 0 0 1134 0 1133 51 5
c72 7 90 29 97 115 l5 68 274 160 c151 88 302 176 336 196 34 20 206 120 382
223 l320 187 135 -3 135 -4 670 -315z m1264 211 c85 -94 97 -82 -119 -130 -80
-17 -246 -56 -369 -87 -203 -49 -271 -58 -271 -35 0 11 642 331 666 331 13 1
45 -27 93 -79z m-4107 -261 c79 -33 161 -69 183 -79 22 -10 103 -44 180 -76
77 -31 144 -60 149 -65 5 -4 -1 -13 -15 -19 -19 -9 -95 4 -399 65 -412 83
-412 83 -408 96 2 4 30 40 63 79 49 57 64 70 82 65 12 -3 86 -32 165 -66z
m4259 -16 c14 -16 40 -47 58 -70 l33 -43 -349 1 c-253 1 -338 4 -313 11 58 17
514 126 531 127 8 1 27 -11 40 -26z m979 -233 l0 -30 -790 0 -790 0 0 30 0 30
790 0 790 0 0 -30z m-5197 -87 l337 -68 -356 -3 c-197 -1 -358 -1 -359 0 -2 2
-1 36 2 76 5 60 8 72 22 68 9 -3 168 -35 354 -73z m5197 -63 l0 -30 -790 0
-790 0 0 30 0 30 790 0 790 0 0 -30z m0 -130 l0 -30 -790 0 -790 0 0 30 0 30
790 0 790 0 0 -30z"/>
</g>
</svg>
