<?xml version="1.0" standalone="no"?>
<!DOCTYPE svg PUBLIC "-//W3C//DTD SVG 20010904//EN"
 "http://www.w3.org/TR/2001/REC-SVG-20010904/DTD/svg10.dtd">
<svg version="1.0" xmlns="http://www.w3.org/2000/svg"
 width="997.000000pt" height="997.000000pt" viewBox="0 0 997.000000 997.000000"
 preserveAspectRatio="xMidYMid meet">

<g transform="translate(0.000000,997.000000) scale(0.100000,-0.100000)"
fill="#000000" stroke="none">
<path d="M4570 9794 c-19 -2 -80 -9 -135 -15 -672 -71 -1127 -231 -1402 -492
-147 -140 -268 -336 -344 -557 -18 -52 -34 -97 -36 -100 -3 -3 -82 -7 -176
-10 -193 -7 -244 -18 -292 -66 -35 -35 -60 -110 -70 -214 -4 -36 -2 -254 4
-485 6 -231 18 -721 26 -1090 8 -368 22 -962 30 -1320 26 -1096 34 -1635 24
-1725 -5 -47 -24 -204 -43 -350 -69 -532 -107 -827 -181 -1400 -42 -322 -89
-688 -106 -815 -22 -174 -30 -271 -30 -397 0 -296 29 -369 163 -415 50 -17
169 -18 2263 -21 1535 -2 2236 0 2295 8 120 15 168 41 202 110 49 99 51 153
34 960 -23 1059 -39 2414 -33 2737 5 294 9 330 93 803 78 445 179 816 434
1595 51 154 114 361 141 459 52 191 140 605 164 771 19 131 19 403 0 529 -18
117 -76 347 -117 466 -216 614 -637 887 -1561 1012 -149 20 -208 22 -737 24
-316 1 -591 0 -610 -2z m942 -594 c761 -52 1158 -243 1343 -643 39 -85 97
-270 121 -387 24 -121 16 -237 -35 -475 -74 -349 -107 -469 -267 -965 -280
-871 -353 -1158 -458 -1795 -77 -467 -71 -346 -69 -1365 0 -503 9 -1301 18
-1773 9 -471 13 -861 10 -867 -7 -11 -3685 -2 -3697 9 -3 3 0 51 8 106 8 55
48 366 90 690 41 325 95 741 119 925 52 389 110 853 125 990 7 65 7 247 0 570
-5 261 -15 698 -20 970 -22 1048 -40 1903 -51 2342 -6 252 -8 462 -4 468 3 5
44 10 89 10 159 0 271 38 320 108 14 21 47 101 72 178 122 371 259 546 543
688 224 113 614 194 1061 219 140 8 543 6 682 -3z"/>
</g>
</svg>
